<?xml version="1.0" encoding="utf-8"?>
<!-- Generator: Adobe Illustrator 25.2.3, SVG Export Plug-In . SVG Version: 6.00 Build 0)  -->
<svg version="1.1" id="Layer_1" xmlns="http://www.w3.org/2000/svg" xmlns:xlink="http://www.w3.org/1999/xlink" x="0px" y="0px"
	 viewBox="0 0 167.8 107.4" style="enable-background:new 0 0 167.8 107.4;" xml:space="preserve">
<style type="text/css">
	.st0{fill:none;stroke:#000000;stroke-width:5;stroke-miterlimit:10;}
</style>
<g>
	<path class="st0" d="M162.7,97.3c-4.3,5-9.4,7.6-15.4,7.6c-9.5,0-17.7-2-24.7-6.1c-7.2-4.1-11-9.3-11.6-15.5
		c-9.6,2.2-19.6,3.3-30.1,3.3c-21.6,0-40.1-4.1-55.4-12.3c-15.3-8.2-23-18.1-23-29.7c0-11.6,7.7-21.5,23-29.7
		C40.8,6.6,59.2,2.5,80.8,2.5c21.7,0,40.2,4.1,55.5,12.3c15.3,8.2,23,18.1,23,29.7c0,11.1-7.1,20.7-21.3,28.7
		c-0.1,0.9-0.2,1.8-0.2,2.7c0,6,2.3,10.8,7,14.7C149.4,94.5,155.4,96.7,162.7,97.3z"/>
</g>
</svg>
